<svg width="43" height="59" viewBox="0 0 43 59" fill="none" xmlns="http://www.w3.org/2000/svg">
<path d="M8.9585 51.625V22.125M34.0418 7.375V17.2083V7.375ZM34.0418 51.625V27.0417V51.625ZM21.5002 7.375V36.875V7.375ZM21.5002 51.625V46.7083V51.625ZM8.9585 7.375V12.2917V7.375Z" stroke="#242938" stroke-width="2" stroke-linecap="round"/>
<path d="M30.4583 22.125C30.4583 24.8404 32.0626 27.0417 34.0417 27.0417C36.0207 27.0417 37.625 24.8404 37.625 22.125C37.625 19.4096 36.0207 17.2083 34.0417 17.2083C32.0626 17.2083 30.4583 19.4096 30.4583 22.125Z" stroke="#242938" stroke-width="2" stroke-linecap="round"/>
<path d="M17.9168 41.7917C17.9168 44.5071 19.5211 46.7083 21.5002 46.7083C23.4792 46.7083 25.0835 44.5071 25.0835 41.7917C25.0835 39.0763 23.4792 36.875 21.5002 36.875C19.5211 36.875 17.9168 39.0763 17.9168 41.7917Z" stroke="#242938" stroke-width="2" stroke-linecap="round"/>
<path d="M5.37484 17.2084C5.37484 19.9238 6.97915 22.125 8.95817 22.125C10.9372 22.125 12.5415 19.9238 12.5415 17.2084C12.5415 14.493 10.9372 12.2917 8.95817 12.2917C6.97915 12.2917 5.37484 14.493 5.37484 17.2084Z" stroke="#242938" stroke-width="2" stroke-linecap="round"/>
</svg>
