<svg width="400" height="388" viewBox="0 0 400 388" fill="none" xmlns="http://www.w3.org/2000/svg">
<path d="M200 387.912C310.457 387.912 400 336.214 400 272.441C400 208.669 310.457 156.971 200 156.971C89.543 156.971 0 208.669 0 272.441C0 336.214 89.543 387.912 200 387.912Z" fill="#F0F0F0"/>
<path d="M314.859 312.507C301.744 304.935 301.744 292.661 314.859 285.089C327.974 277.517 349.238 277.517 362.353 285.089C375.468 292.661 375.468 304.935 362.353 312.507C349.238 320.079 327.974 320.079 314.859 312.507Z" fill="#E0E0E0"/>
<path d="M48.1133 313.56L13.6156 293.646C11.6717 292.525 11.6717 290.7 13.6156 289.58L214.278 173.727C215.368 173.174 216.574 172.886 217.796 172.886C219.019 172.886 220.224 173.174 221.315 173.727L255.821 193.641C257.765 194.762 257.765 196.587 255.821 197.707L55.1589 313.56C54.0668 314.113 52.86 314.401 51.6361 314.401C50.4121 314.401 49.2054 314.113 48.1133 313.56Z" fill="#E0E0E0"/>
<path d="M172.115 278.061L201.774 260.914C204.83 259.148 206.358 256.839 206.358 254.522C206.358 252.204 206.358 250.396 206.358 250.396L175.595 233.046C174.736 232.49 174.02 231.739 173.507 230.854C172.994 229.968 172.697 228.974 172.641 227.952V191.375L120.861 221.306V257.866C120.92 258.887 121.219 259.88 121.732 260.764C122.245 261.649 122.958 262.401 123.815 262.959L149.994 278.035C156.089 281.592 166.003 281.592 172.115 278.061Z" fill="#FB7712"/>
<g opacity="0.6">
<path d="M172.115 278.061L201.774 260.914C204.83 259.148 206.358 256.839 206.358 254.522C206.358 252.204 206.358 250.396 206.358 250.396L175.595 233.046C174.736 232.49 174.02 231.739 173.507 230.854C172.994 229.968 172.697 228.974 172.641 227.952V191.375L120.861 221.306V257.866C120.92 258.887 121.219 259.88 121.732 260.764C122.245 261.649 122.958 262.401 123.815 262.959L149.994 278.035C156.089 281.592 166.003 281.592 172.115 278.061Z" fill="black"/>
</g>
<path opacity="0.3" d="M133.28 264.343V268.451L123.789 262.976C122.933 262.418 122.22 261.666 121.708 260.781C121.197 259.897 120.9 258.904 120.844 257.883V221.306L130.708 215.61C130.911 218.114 131.132 220.703 131.344 223.25L124.409 227.239V255.803C124.464 256.825 124.76 257.82 125.274 258.705C125.787 259.59 126.503 260.341 127.363 260.897L133.28 264.343Z" fill="black"/>
<path d="M124.409 255.812C124.467 256.833 124.765 257.826 125.278 258.711C125.791 259.596 126.506 260.348 127.363 260.905L149.96 273.927C156.071 277.449 165.986 277.458 172.106 273.927L201.817 256.78C207.937 253.248 207.937 247.527 201.817 243.996L179.203 230.974C178.348 230.415 177.635 229.663 177.124 228.778C176.612 227.894 176.315 226.901 176.257 225.881V197.309L124.477 227.239L124.409 255.812Z" fill="#FB7712"/>
<path opacity="0.3" d="M124.409 255.812C124.467 256.833 124.765 257.826 125.278 258.711C125.791 259.596 126.506 260.348 127.363 260.905L149.96 273.927C156.071 277.449 165.986 277.458 172.106 273.927L201.817 256.78C207.937 253.248 207.937 247.527 201.817 243.996L179.203 230.974C178.348 230.415 177.635 229.663 177.124 228.778C176.612 227.894 176.315 226.901 176.257 225.881V197.309L124.477 227.239L124.409 255.812Z" fill="black"/>
<path opacity="0.5" d="M185.187 234.463L179.169 230.991C178.314 230.432 177.601 229.68 177.09 228.795C176.578 227.911 176.281 226.918 176.223 225.898V197.309L124.443 227.239V255.812C124.501 256.833 124.799 257.826 125.312 258.711C125.825 259.596 126.54 260.348 127.397 260.905L133.339 264.301L185.187 234.463Z" fill="black"/>
<path d="M206.366 250.405V254.53C206.366 256.848 204.83 259.148 201.783 260.922L172.072 278.061C168.821 279.796 165.19 280.697 161.504 280.684V276.575C165.19 276.589 168.821 275.688 172.072 273.952L201.783 256.797C204.83 255.039 206.366 252.722 206.366 250.405Z" fill="#FB7712"/>
<path opacity="0.5" d="M206.366 250.405V254.53C206.366 256.848 204.83 259.148 201.783 260.922L172.072 278.061C168.821 279.796 165.19 280.697 161.504 280.684V276.575C165.19 276.589 168.821 275.688 172.072 273.952L201.783 256.797C204.83 255.039 206.366 252.722 206.366 250.405Z" fill="black"/>
<path d="M41.2206 291.32C42.34 291.861 43.5708 292.131 44.8137 292.109C46.0567 292.086 47.2771 291.773 48.3765 291.193L248.708 175.535C249.782 174.835 250.676 173.891 251.317 172.78C251.959 171.67 252.33 170.424 252.4 169.143V7.07895C252.362 5.83314 252.03 4.61402 251.431 3.52094C250.832 2.42786 249.983 1.49175 248.954 0.788898C247.836 0.247627 246.606 -0.0221747 245.364 0.00142512C244.122 0.0250249 242.903 0.34136 241.806 0.924716L41.4753 116.616C40.4049 117.321 39.5162 118.269 38.8819 119.383C38.2476 120.497 37.8855 121.744 37.8252 123.025V285.064C37.8631 286.299 38.1899 287.509 38.7796 288.595C39.3692 289.682 40.2053 290.615 41.2206 291.32Z" fill="#FB7712"/>
<path d="M48.402 291.184L248.733 175.527C249.809 174.827 250.704 173.884 251.346 172.773C251.987 171.662 252.357 170.416 252.426 169.135V7.07874C252.426 4.72739 250.77 3.76818 248.733 4.9481L48.402 120.605C47.3274 121.305 46.433 122.249 45.7914 123.36C45.1498 124.47 44.7791 125.717 44.7095 126.997V289.053C44.7095 291.405 46.3647 292.364 48.402 291.184Z" fill="#FB7712"/>
<path opacity="0.5" d="M48.402 291.184L248.733 175.527C249.809 174.827 250.704 173.884 251.346 172.773C251.987 171.662 252.357 170.416 252.426 169.135V7.07874C252.426 4.72739 250.77 3.76818 248.733 4.9481L48.402 120.605C47.3274 121.305 46.433 122.249 45.7914 123.36C45.1498 124.47 44.7791 125.717 44.7095 126.997V289.053C44.7095 291.405 46.3647 292.364 48.402 291.184Z" fill="black"/>
<path d="M47.8587 295.394C46.8082 295.853 45.6708 296.078 44.5248 296.055C43.3788 296.031 42.2515 295.76 41.2206 295.258C40.203 294.552 39.3656 293.616 38.7758 292.526C38.186 291.437 37.8604 290.224 37.8252 288.985V274.232L44.7434 278.239V292.992C44.701 295.14 46.0676 296.116 47.8587 295.394Z" fill="#FB7712"/>
<path opacity="0.5" d="M47.8587 295.394C46.8082 295.853 45.6708 296.078 44.5248 296.055C43.3788 296.031 42.2515 295.76 41.2206 295.258C40.203 294.552 39.3656 293.616 38.7758 292.526C38.186 291.437 37.8604 290.224 37.8252 288.985V274.232L44.7434 278.239V292.992C44.701 295.14 46.0676 296.116 47.8587 295.394Z" fill="black"/>
<path d="M44.7009 278.239V292.992C44.7009 295.343 46.3986 296.294 48.3935 295.123L248.725 179.465C249.794 178.768 250.686 177.83 251.327 176.726C251.968 175.621 252.342 174.382 252.417 173.107V158.286L44.7009 278.239Z" fill="#FB7712"/>
<path opacity="0.3" d="M44.7095 278.205V292.992C44.7095 295.343 46.4072 296.294 48.402 295.123L248.733 179.465C249.801 178.767 250.691 177.828 251.331 176.724C251.97 175.62 252.343 174.381 252.417 173.107V158.286L44.7095 278.205Z" fill="black"/>
<path d="M51.6277 259.691V129.298C51.6672 128.53 51.8877 127.782 52.2713 127.115C52.6548 126.448 53.1905 125.881 53.8347 125.461L243.249 16.0683C244.472 15.3638 245.465 15.9325 245.465 17.3416V147.803C245.424 148.572 245.202 149.32 244.817 149.987C244.432 150.653 243.895 151.22 243.249 151.64L53.8432 261.007C52.6209 261.712 51.6277 261.134 51.6277 259.691Z" fill="#FB7712"/>
<path d="M51.6277 259.691V129.298C51.6672 128.53 51.8877 127.782 52.2713 127.115C52.6548 126.448 53.1905 125.881 53.8347 125.461L243.249 16.0683C244.472 15.3638 245.465 15.9325 245.465 17.3416V147.803C245.424 148.572 245.202 149.32 244.817 149.987C244.432 150.653 243.895 151.22 243.249 151.64L53.8432 261.007C52.6209 261.712 51.6277 261.134 51.6277 259.691Z" fill="#263238"/>
<path d="M148.559 222.961C147.551 223.617 146.712 224.501 146.11 225.543C145.508 226.584 145.16 227.753 145.096 228.954C145.096 231.161 146.649 232.061 148.559 230.957C149.568 230.301 150.408 229.415 151.01 228.372C151.612 227.329 151.959 226.158 152.022 224.956C152.022 222.749 150.469 221.858 148.559 222.961Z" fill="#FB7712"/>
<path opacity="0.7" d="M45.796 123.347C45.1381 124.453 44.7621 125.704 44.701 126.989V278.239L37.8252 274.232V123.025C37.8697 121.735 38.2438 120.479 38.9117 119.375L45.796 123.347Z" fill="black"/>
<path opacity="0.3" d="M252.383 6.46766C252.12 4.56622 250.584 3.92109 248.725 4.94821L48.3935 120.605C47.3074 121.285 46.4108 122.228 45.7875 123.347L38.8608 119.349C39.4883 118.23 40.3874 117.287 41.4753 116.607L241.806 0.958562C242.905 0.375125 244.125 0.058775 245.368 0.0351772C246.611 0.0115795 247.843 0.281399 248.962 0.822744C249.903 1.46394 250.696 2.29972 251.286 3.27359C251.876 4.24746 252.25 5.3367 252.383 6.46766Z" fill="black"/>
<path d="M263.189 26.416C262.892 26.2667 262.559 26.2012 262.227 26.2267C261.895 26.2521 261.576 26.3674 261.305 26.5603L72.2807 135.758C71.5349 136.251 70.9157 136.913 70.4733 137.69C70.0308 138.468 69.7776 139.338 69.7341 140.231V269.827C69.7077 270.264 69.7945 270.701 69.9864 271.095C70.1782 271.489 70.4685 271.827 70.8292 272.076C71.2451 272.305 73.4691 273.596 74.1312 273.952C74.3655 274.072 74.6272 274.127 74.8897 274.112C75.1522 274.097 75.406 274.012 75.6252 273.867L264.607 164.67C265.353 164.177 265.972 163.514 266.414 162.737C266.857 161.96 267.11 161.09 267.154 160.196V29.9303C267.192 29.6011 267.137 29.2679 266.996 28.968C266.855 28.6681 266.633 28.4134 266.356 28.2326C265.931 27.9525 263.665 26.6962 263.189 26.416Z" fill="#FB7712"/>
<path d="M75.5827 137.591L264.615 28.4364C266.042 27.5875 267.162 28.2836 267.162 29.9304V160.197C267.119 161.09 266.865 161.96 266.423 162.737C265.98 163.515 265.361 164.177 264.615 164.67L75.5827 273.867C74.1566 274.716 73.0361 273.35 73.0361 271.703V142.065C73.081 141.172 73.3347 140.302 73.777 139.525C74.2193 138.748 74.8378 138.086 75.5827 137.591Z" fill="#FAFAFA"/>
<path d="M265.77 28.9288C266.271 28.9288 266.347 29.5569 266.347 29.9304V160.197C266.301 160.944 266.082 161.671 265.706 162.32C265.33 162.968 264.809 163.52 264.183 163.932L75.1753 273.129C75.0484 273.211 74.9019 273.258 74.7508 273.265C74.2755 273.265 73.902 272.535 73.902 271.703V142.065C73.9429 141.317 74.1557 140.589 74.5237 139.937C74.8918 139.285 75.4052 138.726 76.0241 138.304L265.04 29.1664C265.259 29.0253 265.51 28.9434 265.77 28.9288ZM265.77 28.0799C265.361 28.0973 264.963 28.2201 264.615 28.4364L75.5827 137.591C74.8378 138.086 74.2193 138.748 73.777 139.525C73.3347 140.302 73.081 141.172 73.0361 142.065V271.703C73.0361 273.01 73.7662 274.114 74.7339 274.114C75.0336 274.108 75.3265 274.023 75.5827 273.867L264.607 164.67C265.353 164.177 265.972 163.515 266.414 162.737C266.857 161.96 267.11 161.09 267.154 160.197V29.9304C267.154 28.759 266.576 28.0799 265.727 28.0799H265.77Z" fill="#E0E0E0"/>
<path d="M70.7781 272.076C71.0582 272.221 73.07 273.367 73.9528 273.876C73.6358 273.613 73.3847 273.28 73.2196 272.902C73.0546 272.525 72.9801 272.114 73.0021 271.703V150.528L69.6915 148.593V269.827C69.6641 270.264 69.7497 270.7 69.94 271.094C70.1303 271.488 70.419 271.826 70.7781 272.076Z" fill="#F0F0F0"/>
<path d="M267.196 29.9048C267.196 28.275 266.033 27.6129 264.649 28.4363L75.5827 137.591C74.8378 138.086 74.2193 138.748 73.777 139.525C73.3347 140.302 73.081 141.172 73.0361 142.065V150.553L267.196 38.3934V29.9048Z" fill="#FB7712"/>
<g opacity="0.4">
<path d="M264.615 28.4364L75.5826 137.583C74.8239 138.061 74.1989 138.724 73.766 139.51L70.481 137.6C70.9131 136.842 71.5328 136.208 72.2805 135.758L261.305 26.5604C261.575 26.3661 261.894 26.2493 262.226 26.2224C262.558 26.1954 262.891 26.2595 263.189 26.4076C263.648 26.6962 265.795 27.9101 266.347 28.2072C266.062 28.1013 265.755 28.0669 265.453 28.1068C265.151 28.1468 264.863 28.2599 264.615 28.4364Z" fill="white"/>
</g>
<path opacity="0.15" d="M69.6917 148.601V140.189C69.7265 139.272 69.9985 138.38 70.4811 137.6L73.7747 139.501C73.299 140.268 73.0327 141.146 73.0022 142.048V150.536L69.6917 148.601Z" fill="black"/>
<path d="M227.334 127.626L114.121 192.988C113.57 193.345 113.112 193.827 112.783 194.395C112.454 194.963 112.264 195.601 112.228 196.256V228.716C112.264 229.372 112.454 230.009 112.783 230.577C113.112 231.145 113.57 231.627 114.121 231.985L117.423 233.886C118.01 234.183 118.658 234.338 119.316 234.338C119.974 234.338 120.622 234.183 121.209 233.886L234.404 168.524C234.955 168.165 235.414 167.681 235.743 167.112C236.071 166.542 236.261 165.904 236.297 165.247V132.778C236.262 132.123 236.071 131.485 235.742 130.917C235.413 130.35 234.955 129.867 234.404 129.51L231.094 127.609C230.51 127.317 229.865 127.166 229.212 127.169C228.558 127.172 227.915 127.328 227.334 127.626Z" fill="#FB7712"/>
<path opacity="0.5" d="M236.298 132.49C236.162 131.513 235.372 131.157 234.422 131.709L121.209 197.071C120.651 197.418 120.192 197.903 119.876 198.48L112.788 194.389C113.106 193.821 113.561 193.342 114.113 192.996L227.334 127.634C227.919 127.337 228.566 127.182 229.222 127.182C229.879 127.182 230.526 127.337 231.111 127.634L234.422 129.536C234.926 129.866 235.355 130.301 235.678 130.81C236.002 131.32 236.213 131.892 236.298 132.49Z" fill="white"/>
<path d="M120.886 234.047C120.332 234.266 119.738 234.365 119.143 234.339C118.547 234.313 117.964 234.161 117.432 233.895L114.121 231.993C113.571 231.635 113.114 231.153 112.785 230.585C112.456 230.017 112.265 229.38 112.228 228.725V196.265C112.254 195.602 112.446 194.957 112.788 194.389L119.876 198.48C119.532 199.041 119.339 199.681 119.316 200.339V232.808C119.316 233.886 119.995 234.387 120.886 234.047Z" fill="#263238"/>
<path d="M121.209 197.071L234.422 131.709C235.466 131.106 236.314 131.59 236.314 132.795V165.264C236.278 165.921 236.088 166.559 235.759 167.129C235.431 167.698 234.972 168.182 234.422 168.541L121.226 233.903C120.182 234.506 119.333 234.013 119.333 232.808V200.348C119.367 199.693 119.555 199.055 119.88 198.486C120.206 197.917 120.661 197.432 121.209 197.071Z" fill="#FB7712"/>
<path d="M197.318 144.959L114.129 192.996C113.578 193.342 113.123 193.821 112.805 194.389L119.893 198.48C120.208 197.903 120.668 197.418 121.226 197.071L204.414 149.042L197.318 144.959Z" fill="#455A64"/>
<path d="M204.397 149.042L121.209 197.071C120.658 197.43 120.2 197.914 119.871 198.483C119.542 199.052 119.352 199.691 119.316 200.347V232.799C119.316 234.005 120.165 234.497 121.209 233.894L204.397 185.866V149.042Z" fill="#37474F"/>
<path d="M140.393 193.115L183.32 168.337C185.094 167.31 186.537 168.04 186.537 169.967C186.458 171.049 186.124 172.097 185.564 173.027C185.003 173.956 184.232 174.74 183.312 175.315L140.393 200.101C138.619 201.129 137.167 200.399 137.167 198.472C137.248 197.388 137.581 196.339 138.142 195.409C138.702 194.478 139.473 193.693 140.393 193.115Z" fill="#FB7712"/>
<path d="M149.187 201.324C149.195 201.315 149.205 201.308 149.216 201.303C149.227 201.298 149.239 201.295 149.251 201.295C149.263 201.295 149.275 201.298 149.286 201.303C149.297 201.308 149.307 201.315 149.315 201.324C149.353 201.382 149.37 201.45 149.366 201.519V206.349C149.366 206.816 149.326 207.282 149.247 207.741C149.177 208.161 149.057 208.572 148.89 208.964C148.738 209.323 148.538 209.66 148.296 209.965C148.057 210.249 147.77 210.487 147.447 210.67C147.194 210.834 146.9 210.923 146.598 210.925C146.483 210.915 146.371 210.883 146.269 210.829C146.167 210.775 146.076 210.7 146.004 210.61C145.818 210.361 145.695 210.069 145.648 209.762C145.566 209.351 145.529 208.932 145.537 208.514V203.675C145.537 203.591 145.554 203.507 145.588 203.429C145.609 203.359 145.654 203.299 145.715 203.259L146.25 202.945C146.267 202.929 146.29 202.92 146.314 202.92C146.337 202.92 146.36 202.929 146.378 202.945C146.417 203.002 146.435 203.071 146.428 203.14V207.911C146.422 208.174 146.448 208.436 146.505 208.692C146.528 208.856 146.599 209.009 146.709 209.133C146.747 209.179 146.795 209.215 146.85 209.238C146.904 209.262 146.963 209.273 147.023 209.269C147.168 209.26 147.308 209.213 147.43 209.133C147.581 209.043 147.718 208.932 147.838 208.802C147.97 208.65 148.079 208.478 148.16 208.293C148.256 208.075 148.327 207.848 148.372 207.614C148.422 207.334 148.445 207.05 148.44 206.765V201.986C148.443 201.901 148.463 201.817 148.5 201.74C148.52 201.67 148.566 201.61 148.627 201.57L149.187 201.324Z" fill="#FAFAFA"/>
<path d="M152.515 205.891C152.519 205.828 152.504 205.766 152.472 205.712C152.452 205.69 152.427 205.673 152.399 205.663C152.371 205.653 152.341 205.649 152.311 205.653C152.207 205.639 152.101 205.639 151.997 205.653L151.505 205.746C151.346 205.786 151.18 205.786 151.021 205.746C150.896 205.706 150.789 205.626 150.715 205.517C150.632 205.379 150.577 205.226 150.554 205.067C150.471 204.613 150.471 204.147 150.554 203.692C150.618 203.431 150.709 203.178 150.826 202.937C150.942 202.695 151.084 202.468 151.25 202.258C151.411 202.057 151.606 201.888 151.827 201.757C152.006 201.648 152.205 201.578 152.413 201.553C152.564 201.537 152.715 201.57 152.846 201.646C152.97 201.722 153.068 201.835 153.126 201.969C153.194 202.127 153.232 202.297 153.236 202.47C153.245 202.555 153.227 202.641 153.185 202.716C153.165 202.786 153.119 202.846 153.058 202.886L152.549 203.183C152.526 203.196 152.499 203.203 152.472 203.203C152.446 203.203 152.419 203.196 152.396 203.183L152.286 203.098C152.242 203.063 152.189 203.043 152.133 203.039C152.024 203.051 151.919 203.088 151.827 203.149C151.694 203.229 151.576 203.333 151.479 203.454C151.376 203.588 151.323 203.753 151.326 203.921C151.314 203.986 151.314 204.052 151.326 204.117C151.343 204.141 151.364 204.161 151.389 204.175C151.414 204.19 151.442 204.199 151.471 204.201C151.563 204.217 151.658 204.217 151.751 204.201L152.226 204.117C152.625 204.04 152.897 204.117 153.075 204.337C153.262 204.652 153.348 205.016 153.321 205.381C153.319 205.634 153.285 205.885 153.219 206.128C153.152 206.393 153.055 206.649 152.931 206.892C152.806 207.144 152.649 207.378 152.464 207.588C152.288 207.795 152.079 207.97 151.844 208.106C151.658 208.226 151.445 208.298 151.225 208.318C151.065 208.324 150.908 208.279 150.775 208.191C150.644 208.102 150.543 207.974 150.486 207.826C150.417 207.665 150.383 207.492 150.384 207.317C150.376 207.229 150.394 207.14 150.435 207.062C150.456 206.992 150.501 206.932 150.562 206.892L151.072 206.595C151.14 206.595 151.191 206.553 151.225 206.595L151.335 206.714C151.357 206.739 151.385 206.76 151.415 206.774C151.446 206.789 151.479 206.797 151.513 206.799C151.633 206.8 151.749 206.761 151.844 206.689C151.997 206.602 152.135 206.49 152.252 206.358C152.309 206.288 152.358 206.211 152.396 206.128C152.456 206.061 152.497 205.979 152.515 205.891Z" fill="#FAFAFA"/>
<path d="M154.247 203.59C154.245 203.149 154.282 202.709 154.357 202.275C154.428 201.866 154.539 201.465 154.688 201.078C154.813 200.731 154.984 200.402 155.197 200.101C155.375 199.843 155.607 199.626 155.876 199.465C156.073 199.333 156.313 199.281 156.547 199.321C156.754 199.369 156.936 199.493 157.056 199.669C157.216 199.899 157.329 200.159 157.387 200.433C157.469 200.789 157.509 201.154 157.506 201.519V202.045C157.509 202.134 157.488 202.222 157.447 202.3C157.426 202.37 157.381 202.43 157.319 202.47L155.112 203.752C155.107 203.901 155.127 204.05 155.172 204.193C155.205 204.289 155.263 204.374 155.342 204.439C155.411 204.494 155.499 204.522 155.588 204.516C155.69 204.503 155.789 204.469 155.876 204.414C156.005 204.344 156.12 204.252 156.216 204.142C156.303 204.044 156.377 203.936 156.437 203.82C156.473 203.752 156.513 203.687 156.556 203.624C156.592 203.581 156.635 203.544 156.683 203.514L157.209 203.208C157.227 203.194 157.25 203.186 157.273 203.186C157.296 203.186 157.318 203.194 157.336 203.208C157.359 203.235 157.375 203.267 157.384 203.3C157.392 203.334 157.394 203.369 157.387 203.404C157.378 203.569 157.344 203.732 157.286 203.887C157.212 204.123 157.116 204.35 156.997 204.567C156.864 204.815 156.705 205.048 156.522 205.263C156.339 205.481 156.121 205.668 155.876 205.814C155.676 205.946 155.436 206.003 155.197 205.976C154.989 205.925 154.807 205.798 154.688 205.619C154.521 205.362 154.408 205.073 154.357 204.77C154.28 204.382 154.243 203.986 154.247 203.59ZM155.876 200.882C155.746 200.953 155.633 201.051 155.545 201.171C155.451 201.29 155.374 201.421 155.316 201.562C155.257 201.702 155.208 201.847 155.172 201.994C155.142 202.129 155.122 202.265 155.112 202.402L156.606 201.553C156.598 201.436 156.581 201.32 156.556 201.205C156.542 201.102 156.501 201.006 156.437 200.925C156.411 200.888 156.379 200.857 156.341 200.834C156.303 200.81 156.26 200.795 156.216 200.789C156.095 200.779 155.975 200.812 155.876 200.882Z" fill="#FAFAFA"/>
<path d="M160.172 198.514C159.914 198.661 159.712 198.887 159.594 199.159C159.462 199.517 159.402 199.898 159.416 200.28V203.344C159.417 203.432 159.4 203.518 159.365 203.599C159.344 203.669 159.299 203.729 159.238 203.769L158.737 204.057C158.729 204.066 158.719 204.073 158.708 204.078C158.697 204.083 158.685 204.086 158.673 204.086C158.661 204.086 158.649 204.083 158.638 204.078C158.627 204.073 158.618 204.066 158.61 204.057C158.572 203.999 158.554 203.931 158.559 203.862V198.37C158.559 198.282 158.576 198.196 158.61 198.115C158.633 198.047 158.678 197.987 158.737 197.945L159.238 197.657C159.255 197.641 159.278 197.632 159.301 197.632C159.325 197.632 159.348 197.641 159.365 197.657C159.404 197.711 159.423 197.777 159.416 197.843V198.115C159.517 197.887 159.642 197.671 159.79 197.47C159.924 197.284 160.098 197.13 160.299 197.02L160.604 196.842C160.62 196.826 160.642 196.818 160.664 196.818C160.686 196.818 160.707 196.826 160.723 196.842C160.764 196.898 160.785 196.967 160.783 197.037V197.81C160.781 197.898 160.761 197.984 160.723 198.064C160.702 198.132 160.66 198.191 160.604 198.234L160.172 198.514Z" fill="#FAFAFA"/>
<path d="M166.504 198.107C166.512 198.098 166.522 198.09 166.533 198.085C166.544 198.081 166.556 198.078 166.568 198.078C166.58 198.078 166.592 198.081 166.603 198.085C166.614 198.09 166.623 198.098 166.631 198.107C166.669 198.164 166.687 198.233 166.682 198.302V199.151C166.682 199.238 166.665 199.325 166.631 199.405C166.602 199.468 166.559 199.524 166.504 199.567L163.601 201.264C163.584 201.281 163.561 201.29 163.537 201.29C163.514 201.29 163.491 201.281 163.474 201.264C163.436 201.21 163.418 201.144 163.423 201.078V193.438C163.423 193.351 163.44 193.264 163.474 193.183C163.497 193.117 163.542 193.06 163.601 193.022L164.136 192.708C164.153 192.692 164.176 192.683 164.199 192.683C164.223 192.683 164.246 192.692 164.263 192.708C164.301 192.762 164.319 192.828 164.314 192.895V199.355L166.504 198.107Z" fill="#FAFAFA"/>
<path d="M169.11 191.825C169.301 191.693 169.532 191.63 169.764 191.647C169.962 191.663 170.148 191.754 170.281 191.902C170.44 192.083 170.556 192.298 170.621 192.53C170.712 192.83 170.763 193.141 170.774 193.455C170.774 193.523 170.774 193.616 170.774 193.727V194.38C170.774 194.482 170.774 194.575 170.774 194.652C170.757 195.021 170.706 195.387 170.621 195.747C170.543 196.097 170.429 196.438 170.281 196.766C170.147 197.07 169.973 197.355 169.764 197.614C169.585 197.849 169.363 198.048 169.11 198.2C168.914 198.328 168.682 198.39 168.448 198.378C168.252 198.361 168.07 198.27 167.939 198.124C167.776 197.949 167.659 197.736 167.599 197.504C167.508 197.204 167.457 196.893 167.446 196.579C167.446 196.511 167.446 196.426 167.446 196.316V195.662C167.446 195.552 167.446 195.458 167.446 195.39C167.456 195.019 167.505 194.649 167.591 194.287C167.673 193.934 167.79 193.59 167.939 193.26C168.073 192.957 168.245 192.672 168.448 192.411C168.628 192.174 168.853 191.975 169.11 191.825ZM169.908 194.015C169.908 193.827 169.876 193.641 169.815 193.463C169.783 193.355 169.718 193.26 169.628 193.192C169.556 193.143 169.468 193.122 169.382 193.132C169.285 193.151 169.192 193.188 169.11 193.243C169.01 193.297 168.919 193.366 168.838 193.447C168.741 193.548 168.658 193.662 168.592 193.786C168.507 193.94 168.444 194.106 168.406 194.278C168.35 194.495 168.316 194.717 168.304 194.941C168.304 195.008 168.304 195.085 168.304 195.178V195.781C168.304 195.874 168.304 195.951 168.304 196.002C168.312 196.189 168.346 196.375 168.406 196.553C168.437 196.662 168.502 196.757 168.592 196.825C168.628 196.85 168.668 196.867 168.71 196.876C168.752 196.885 168.796 196.885 168.838 196.876C168.935 196.86 169.027 196.825 169.11 196.774C169.208 196.717 169.3 196.649 169.382 196.57C169.476 196.467 169.559 196.353 169.628 196.231C169.71 196.075 169.772 195.909 169.815 195.738C169.87 195.522 169.901 195.3 169.908 195.076C169.913 194.997 169.913 194.918 169.908 194.839V194.244C169.913 194.168 169.913 194.092 169.908 194.015Z" fill="#FAFAFA"/>
<path d="M173.371 196.791C173.48 196.725 173.577 196.642 173.66 196.545C173.762 196.425 173.85 196.294 173.923 196.154C174.007 195.984 174.073 195.804 174.118 195.62C174.171 195.411 174.196 195.197 174.195 194.983V194.55C174.195 194.635 174.11 194.737 174.05 194.856C173.992 194.98 173.924 195.099 173.847 195.212C173.758 195.331 173.662 195.445 173.558 195.552C173.452 195.663 173.328 195.758 173.193 195.832C173.106 195.891 173.008 195.933 172.904 195.953C172.8 195.973 172.694 195.973 172.59 195.951C172.402 195.892 172.24 195.768 172.132 195.603C171.994 195.383 171.893 195.142 171.835 194.89C171.763 194.569 171.723 194.242 171.716 193.913C171.716 193.803 171.716 193.667 171.716 193.506C171.716 193.345 171.716 193.209 171.716 193.09C171.727 192.717 171.766 192.345 171.835 191.978C171.905 191.617 172.004 191.262 172.132 190.917C172.252 190.617 172.406 190.333 172.59 190.068C172.747 189.834 172.953 189.637 173.193 189.491C173.306 189.423 173.429 189.374 173.558 189.346C173.653 189.329 173.751 189.329 173.847 189.346C173.922 189.368 173.992 189.405 174.05 189.457C174.105 189.498 174.153 189.547 174.195 189.601V189.329C174.195 189.242 174.212 189.156 174.246 189.075C174.269 189.009 174.314 188.952 174.373 188.914L174.874 188.616C174.891 188.6 174.914 188.591 174.937 188.591C174.961 188.591 174.984 188.6 175.001 188.616C175.042 188.673 175.063 188.742 175.061 188.812V194.329C175.083 195.156 174.93 195.977 174.611 196.74C174.36 197.34 173.926 197.845 173.371 198.183C173.182 198.301 172.966 198.368 172.743 198.378C172.567 198.389 172.392 198.344 172.242 198.251C172.099 198.144 171.983 198.004 171.903 197.844C171.82 197.65 171.774 197.443 171.767 197.232C171.759 197.144 171.777 197.056 171.818 196.978C171.839 196.908 171.884 196.848 171.945 196.808L172.395 196.553C172.405 196.542 172.418 196.533 172.432 196.527C172.446 196.521 172.461 196.518 172.476 196.518C172.491 196.518 172.506 196.521 172.52 196.527C172.534 196.533 172.546 196.542 172.556 196.553C172.598 196.597 172.635 196.646 172.667 196.698C172.718 196.789 172.804 196.856 172.904 196.884C173.006 196.961 173.159 196.876 173.371 196.791ZM172.573 192.674C172.573 192.9 172.573 193.121 172.573 193.336C172.549 193.675 172.645 194.012 172.845 194.287C172.921 194.352 173.017 194.388 173.117 194.388C173.216 194.388 173.313 194.352 173.388 194.287C173.635 194.127 173.827 193.896 173.94 193.625C174.095 193.271 174.181 192.89 174.195 192.504C174.195 192.377 174.195 192.224 174.195 192.046C174.195 191.868 174.195 191.715 174.195 191.604C174.212 191.3 174.122 191 173.94 190.756C173.865 190.686 173.766 190.648 173.664 190.648C173.562 190.648 173.464 190.686 173.388 190.756C173.147 190.915 172.958 191.143 172.845 191.409C172.671 191.808 172.578 192.238 172.573 192.674Z" fill="#FAFAFA"/>
<path d="M177.038 185.136C177.055 185.122 177.076 185.115 177.098 185.115C177.12 185.115 177.141 185.122 177.157 185.136C177.202 185.191 177.223 185.261 177.217 185.331V186.257C177.217 186.345 177.197 186.432 177.157 186.511C177.134 186.575 177.092 186.631 177.038 186.673L176.47 187.004C176.462 187.013 176.452 187.02 176.441 187.025C176.43 187.03 176.418 187.032 176.406 187.032C176.394 187.032 176.382 187.03 176.371 187.025C176.36 187.02 176.35 187.013 176.342 187.004C176.32 186.978 176.304 186.949 176.293 186.916C176.283 186.884 176.28 186.85 176.283 186.817V185.892C176.282 185.803 176.303 185.716 176.342 185.637C176.366 185.571 176.411 185.514 176.47 185.476L177.038 185.136ZM177.183 193.107C177.183 193.192 177.166 193.275 177.132 193.353C177.105 193.42 177.061 193.478 177.005 193.523L176.495 193.811C176.488 193.82 176.479 193.827 176.469 193.832C176.458 193.837 176.447 193.84 176.436 193.84C176.424 193.84 176.413 193.837 176.403 193.832C176.393 193.827 176.384 193.82 176.376 193.811C176.332 193.757 176.311 193.687 176.317 193.616V188.124C176.316 188.036 176.337 187.948 176.376 187.869C176.4 187.803 176.441 187.745 176.495 187.7L177.005 187.411C177.022 187.395 177.045 187.386 177.068 187.386C177.092 187.386 177.115 187.395 177.132 187.411C177.17 187.466 177.188 187.532 177.183 187.598V193.107Z" fill="#FAFAFA"/>
<path d="M181.648 190.518C181.647 190.605 181.63 190.692 181.597 190.772C181.573 190.839 181.528 190.895 181.47 190.934L180.96 191.231C180.944 191.246 180.923 191.255 180.901 191.255C180.879 191.255 180.857 191.246 180.841 191.231C180.797 191.176 180.776 191.106 180.782 191.036V188.048C180.808 187.695 180.744 187.341 180.595 187.021C180.476 186.808 180.29 186.774 180.027 186.927C179.764 187.104 179.569 187.364 179.475 187.666C179.333 188.066 179.264 188.489 179.271 188.913V191.91C179.271 191.997 179.253 192.084 179.22 192.165C179.199 192.235 179.154 192.295 179.093 192.334L178.592 192.623C178.584 192.632 178.574 192.639 178.563 192.644C178.552 192.649 178.54 192.652 178.528 192.652C178.516 192.652 178.504 192.649 178.493 192.644C178.482 192.639 178.473 192.632 178.465 192.623C178.425 192.569 178.407 192.503 178.414 192.436V186.944C178.412 186.857 178.43 186.77 178.465 186.689C178.485 186.619 178.531 186.559 178.592 186.52L179.093 186.231C179.101 186.222 179.111 186.215 179.121 186.21C179.132 186.205 179.144 186.202 179.156 186.202C179.168 186.202 179.18 186.205 179.191 186.21C179.202 186.215 179.212 186.222 179.22 186.231C179.258 186.289 179.276 186.357 179.271 186.426V186.689C179.383 186.431 179.519 186.183 179.678 185.951C179.818 185.737 180.007 185.559 180.23 185.433C180.423 185.292 180.664 185.231 180.901 185.263C180.995 185.287 181.083 185.33 181.159 185.39C181.235 185.45 181.297 185.526 181.342 185.611C181.465 185.841 181.546 186.091 181.58 186.35C181.625 186.688 181.648 187.028 181.648 187.369V190.518Z" fill="#FAFAFA"/>
<path d="M224.464 165.807L216.222 170.561L217.504 159C216.51 158.473 215.882 157.192 215.882 155.35C215.882 152.064 217.886 148.253 220.347 146.861C222.809 145.469 224.804 146.946 224.804 150.256C224.753 152.204 224.197 154.105 223.191 155.774L224.464 165.807Z" fill="#455A64"/>
<path d="M224.473 165.807L217.215 161.623L216.222 170.57L224.473 165.807Z" fill="#37474F"/>
<path d="M220.33 146.835C218.535 148.048 217.197 149.826 216.527 151.886L223.174 155.723C224.18 154.054 224.736 152.153 224.787 150.205C224.804 146.92 222.809 145.418 220.33 146.835Z" fill="#37474F"/>
<path d="M180.264 108.34C177.437 106.71 173.541 106.939 169.229 109.426C160.621 114.401 153.644 126.48 153.644 136.42C153.644 141.411 155.409 144.909 158.245 146.521L163.737 149.713C166.555 151.343 170.451 151.105 174.772 148.618C183.379 143.652 190.357 131.565 190.357 121.624C190.357 116.659 188.608 113.136 185.79 111.548" fill="#FB7712"/>
<path d="M174.764 112.626C166.156 117.601 159.178 129.688 159.178 139.62C159.178 149.552 166.156 153.592 174.764 148.618C183.371 143.644 190.357 131.564 190.349 121.624C190.34 111.684 183.362 107.66 174.764 112.626Z" fill="#FB7712"/>
<path d="M183.362 134.68V135.817C181.3 139.498 178.343 142.599 174.763 144.832C171.41 146.759 168.38 146.971 166.156 145.74V143.398C166.27 140.96 166.966 138.585 168.186 136.472C169.406 134.359 171.114 132.568 173.168 131.25L175.434 129.943C177.437 128.789 179.39 128.636 180.918 129.527C182.446 130.418 183.362 132.294 183.362 134.68Z" fill="#FB7712"/>
<path opacity="0.4" d="M180.264 108.34L185.782 111.548C182.964 109.91 179.067 110.139 174.747 112.626C169.11 115.886 164.17 122.193 161.436 128.95L155.91 125.75C158.652 118.959 163.55 112.686 169.221 109.426C173.55 106.947 177.446 106.71 180.264 108.34Z" fill="white"/>
<path opacity="0.2" d="M163.542 149.586L158.253 146.521C155.418 144.908 153.652 141.428 153.652 136.42L159.178 139.629C159.212 144.467 160.842 147.913 163.542 149.586Z" fill="black"/>
<path opacity="0.1" d="M155.927 125.75L161.453 128.95C160.037 132.333 159.277 135.954 159.212 139.62L153.686 136.412C153.754 132.748 154.515 129.131 155.927 125.75Z" fill="black"/>
<path d="M172.794 129.408C172.267 129.414 171.749 129.279 171.292 129.018C170.74 128.651 170.299 128.141 170.014 127.543C169.728 126.946 169.61 126.282 169.67 125.623C169.742 124.076 170.184 122.569 170.958 121.228C171.731 119.887 172.815 118.751 174.118 117.915C174.642 117.497 175.279 117.247 175.947 117.197C176.615 117.147 177.282 117.3 177.862 117.636C178.441 117.972 178.906 118.474 179.196 119.078C179.485 119.682 179.585 120.36 179.483 121.022C179.41 122.568 178.968 124.074 178.194 125.415C177.42 126.756 176.337 127.892 175.035 128.729C174.361 129.15 173.588 129.384 172.794 129.408Z" fill="white"/>
<path d="M180.918 129.519C179.39 128.627 177.437 128.78 175.434 129.935L173.168 131.242C171.113 132.56 169.404 134.352 168.184 136.467C166.964 138.582 166.269 140.959 166.156 143.398V145.749C168.38 146.98 171.41 146.768 174.763 144.841C178.343 142.607 181.3 139.506 183.362 135.826V134.688C183.362 132.294 182.48 130.418 180.918 129.519Z" fill="white"/>
<path d="M355.426 276.372C355.426 276.372 356.555 266.457 361.487 258.758C366.419 251.058 373.193 246.262 379.517 245.762C385.841 245.261 390.951 251.084 384.186 255.099C377.42 259.114 365.4 263.172 359.866 278.112L355.426 276.372Z" fill="#FB7712"/>
<path opacity="0.1" d="M355.426 276.372C355.426 276.372 356.555 266.457 361.487 258.758C366.419 251.058 373.193 246.262 379.517 245.762C385.841 245.261 390.951 251.084 384.186 255.099C377.42 259.114 365.4 263.172 359.866 278.112L355.426 276.372Z" fill="black"/>
<path d="M357.285 273.791H357.217C357.134 273.757 357.068 273.692 357.033 273.609C356.998 273.526 356.997 273.433 357.03 273.35C363.703 256.924 376.401 250.057 382.191 248.733C382.234 248.723 382.279 248.721 382.323 248.729C382.367 248.736 382.409 248.752 382.447 248.776C382.485 248.799 382.518 248.83 382.544 248.866C382.57 248.903 382.588 248.944 382.598 248.987C382.608 249.031 382.61 249.076 382.602 249.12C382.595 249.164 382.579 249.206 382.555 249.244C382.532 249.282 382.501 249.314 382.464 249.34C382.428 249.366 382.387 249.385 382.343 249.395C376.673 250.702 364.22 257.442 357.659 273.613C357.626 273.681 357.571 273.735 357.503 273.767C357.435 273.8 357.358 273.808 357.285 273.791Z" fill="white"/>
<path d="M391.053 273.986C390.484 275.277 389.075 275.956 387.768 276.482C386.46 277.008 385.034 277.577 384.321 278.799C382.895 281.261 385.238 284.741 383.71 287.127C383.35 287.607 382.897 288.009 382.378 288.31C381.859 288.611 381.284 288.803 380.688 288.875C379.712 289.054 378.719 289.054 377.734 289.139C377.263 289.132 376.792 289.095 376.325 289.028C374.953 288.722 373.519 288.874 372.242 289.461C370.281 290.565 369.695 293.035 368.49 294.945C367.754 296.069 366.783 297.022 365.645 297.737C364.506 298.451 363.227 298.912 361.894 299.087C361.046 299.198 359.348 299.359 358.499 298.858C358.433 298.825 358.37 298.786 358.312 298.739C358.185 298.603 358.032 298.425 357.964 298.332C357.96 298.312 357.96 298.292 357.964 298.272C357.616 296.991 358.185 295.666 358.21 294.342V294.104C358.151 292.568 358.109 291.04 358.075 289.512C358.001 286.683 357.973 283.853 357.99 281.023C357.99 279.19 357.786 277.187 358.567 275.463C359.416 273.562 361.555 273.52 362.361 271.661C362.684 270.914 362.854 270.124 363.168 269.369C363.653 268.27 364.431 267.326 365.415 266.639C366.4 265.952 367.555 265.549 368.753 265.472C372.48 265.286 375.816 268.299 379.542 268.019C380.501 267.943 381.444 267.645 382.394 267.476C385.408 266.907 388.897 267.764 390.594 270.319C390.967 270.845 391.204 271.456 391.284 272.095C391.364 272.735 391.284 273.385 391.053 273.986Z" fill="#FB7712"/>
<path d="M357.591 292.39C357.51 292.366 357.443 292.312 357.401 292.239C357.36 292.166 357.349 292.08 357.37 291.999C362.514 272.696 382.836 269.929 387.615 270.251C387.657 270.253 387.698 270.264 387.736 270.282C387.774 270.301 387.808 270.326 387.835 270.358C387.863 270.39 387.884 270.427 387.897 270.467C387.91 270.507 387.915 270.549 387.912 270.591C387.903 270.673 387.863 270.749 387.8 270.803C387.737 270.857 387.655 270.884 387.572 270.879C382.912 270.548 363.015 273.273 357.981 292.169C357.957 292.249 357.903 292.317 357.831 292.358C357.758 292.399 357.672 292.411 357.591 292.39Z" fill="white"/>
<path d="M380.196 282.611C380.132 282.602 380.072 282.572 380.026 282.526C378.147 280.898 375.932 279.704 373.539 279.031C371.146 278.357 368.634 278.22 366.181 278.63C366.099 278.637 366.016 278.614 365.95 278.563C365.884 278.513 365.839 278.44 365.825 278.358C365.812 278.275 365.833 278.19 365.882 278.122C365.931 278.054 366.005 278.008 366.088 277.993C368.646 277.567 371.266 277.713 373.76 278.418C376.255 279.124 378.563 280.373 380.519 282.076C380.549 282.105 380.572 282.14 380.589 282.179C380.605 282.217 380.613 282.259 380.613 282.301C380.613 282.343 380.605 282.384 380.589 282.423C380.572 282.462 380.549 282.497 380.519 282.526C380.48 282.572 380.429 282.604 380.371 282.62C380.313 282.635 380.252 282.632 380.196 282.611Z" fill="white"/>
<path d="M308.714 43.232L311.413 44.2676V38.3255C311.413 33.6059 315.173 32.4769 319.256 34.8367C323.348 37.1966 326.659 42.9264 326.659 47.646V48.4949C327.228 48.321 327.829 48.2781 328.417 48.3692C329.004 48.4603 329.564 48.6832 330.054 49.0212C331.604 50.0321 332.894 51.3946 333.819 52.9979C334.744 54.6012 335.278 56.4 335.376 58.2483V58.6388L339.145 60.8119C340.165 61.4774 341.014 62.3737 341.623 63.4281C342.232 64.4825 342.584 65.6654 342.651 66.8812C342.651 69.1222 341.081 70.0305 339.145 68.91L308.714 51.3301C307.693 50.6661 306.844 49.77 306.237 48.7151C305.629 47.6603 305.279 46.4766 305.216 45.2607C305.216 43.0282 306.77 42.1199 308.714 43.232Z" fill="#E6E6E6"/>
<path d="M344.867 38.5293L349.764 41.356C349.738 41.142 349.723 40.9266 349.722 40.7109V39.2933C349.722 36.7467 351.488 35.7451 353.678 37.0099C354.619 37.5861 355.424 38.3593 356.038 39.2763C356.394 36.1016 358.89 34.9217 361.912 36.6618C363.639 37.7855 365.076 39.3002 366.109 41.0832C367.141 42.8662 367.739 44.8674 367.854 46.9245V49.0467C367.876 49.8946 367.704 50.7364 367.353 51.5084L371.427 53.8512C372.062 54.2724 372.59 54.8366 372.967 55.4985C373.345 56.1604 373.561 56.9017 373.6 57.6626C373.6 59.0632 372.616 59.632 371.402 58.9359L344.867 43.6564C344.225 43.2383 343.691 42.6742 343.309 42.0103C342.927 41.3464 342.707 40.6016 342.668 39.8366C342.668 38.402 343.653 37.8332 344.867 38.5293Z" fill="#E6E6E6"/>
<path d="M325.903 167.361C322.338 173.387 318.908 178.625 316.498 181.138C311.922 183.26 301.176 186.536 296.974 187.08C296.236 187.174 295.489 186.999 294.869 186.587C293.213 185.501 291.932 185.322 290.192 184.72C288.825 184.253 288.248 183.599 287.993 183.871C287.73 184.179 287.598 184.578 287.625 184.983C287.652 185.387 287.836 185.765 288.137 186.036C288.79 186.656 289.514 187.197 290.293 187.648C288.43 188.111 286.485 188.146 284.606 187.75C280.964 186.791 279.25 188.54 281.711 192.495C282.56 193.904 286.058 196.171 293.086 195.56C295.594 195.425 298.091 195.141 300.565 194.711C307.305 193.268 314.8 191.876 319.409 190.467C321.124 189.792 322.658 188.729 323.891 187.36C331.641 178.523 334.213 172.225 337.609 166.503L337.32 157.166C331.82 156.979 328.883 162.318 325.903 167.361Z" fill="#FFA8A7"/>
<path d="M338.262 156.979C336.667 156.755 335.041 156.971 333.56 157.604C332.079 158.236 330.799 159.262 329.859 160.57C326.09 165.4 319.418 176.995 319.418 176.995C319.418 176.995 321.599 182.81 327.49 183.786L336.955 171.002C336.955 171.002 341.437 162.123 338.262 156.979Z" fill="#455A64"/>
<path d="M358.729 287.313H352.557V298.314H358.729V287.313Z" fill="#FFA8A7"/>
<path d="M337.337 286.727L331.174 286.948L330.86 275.302L337.337 275.081V286.727Z" fill="#FFA8A7"/>
<path d="M359.594 192.079C359.594 198.208 358.695 247.586 358.695 247.586C358.83 249.352 360.392 252.611 360.078 259.394C359.611 268.604 358.992 292.814 358.992 292.814C357.932 293.356 356.764 293.65 355.574 293.673C354.384 293.697 353.204 293.449 352.124 292.949C352.124 292.949 347.116 258.995 346.013 249.904C345.045 241.933 342.566 215.55 342.566 215.55L339.23 246.737C339.937 250.084 340.194 253.509 339.994 256.924C339.706 261.168 337.719 283.137 337.719 283.137C336.653 283.765 335.458 284.144 334.224 284.242C332.99 284.341 331.75 284.157 330.597 283.705C330.597 283.705 327.083 250.6 327.015 246.712C326.93 242.298 329.069 192.028 329.069 192.028L359.594 192.079Z" fill="#37474F"/>
<path d="M352.557 295.14V294.223C351.963 294.486 350.596 299.936 348.143 302.262C346.199 304.112 343.551 306.243 342.872 308.305C342.193 310.368 346.564 311.633 348.389 311.302C350.495 310.911 354.162 309.358 355.078 307.906C355.995 306.455 356.428 304.35 357.175 303.297C357.922 302.245 359.645 301.073 360.044 299.851C360.169 298.707 360.05 297.55 359.696 296.455C359.408 295.318 359.102 294.07 358.728 294.18V294.876C357.858 295.591 356.764 295.975 355.639 295.963C354.739 296.039 352.549 295.853 352.557 295.14Z" fill="#263238"/>
<path d="M331.107 284.962C330.784 284.962 330.521 285.446 329.816 286.243C328.769 287.345 327.543 288.264 326.192 288.96C323.883 290.165 319.401 292.016 317.355 292.975C316.082 293.569 316.141 295.165 317.457 296.073C318.773 296.982 321.939 297.635 325.742 296.752C327.813 296.269 330.512 294.274 332.227 294.384C333.942 294.494 337.125 294.46 338.39 293.535C339.655 292.61 339.145 290.691 338.789 289.036C338.398 287.22 337.94 284.393 337.337 284.52V285.157C336.599 286.328 332.77 286.804 331.14 285.946L331.107 284.962Z" fill="#263238"/>
<path d="M342.566 215.55C339.356 214.5 336.421 212.745 333.976 210.415C333.976 210.415 335.674 213.649 340.563 216.662L339.51 244.514L342.566 215.55Z" fill="#263238"/>
<path d="M356.148 157.879C356.148 157.879 361.241 159.05 360.876 168.252L359.815 182.895V204.88C355.282 210.024 335.198 209.651 328.28 204.473C328.28 204.473 329.061 178.455 329.528 168.439C329.859 161.325 331.497 157.743 338.492 156.962L347.091 157.335L356.148 157.879Z" fill="#FB7712"/>
<path d="M349.663 138.762C349.692 139.994 349.477 141.22 349.03 142.368C348.584 143.517 347.914 144.566 347.061 145.454C346.207 146.343 345.186 147.053 344.056 147.545C342.926 148.037 341.71 148.301 340.478 148.321C335.385 148.321 332.397 143.923 331.293 138.762C329.256 129.315 335.402 129.196 340.478 129.196C342.964 129.247 345.329 130.284 347.051 132.078C348.773 133.871 349.713 136.276 349.663 138.762Z" fill="#263238"/>
<path d="M354.348 142.625C354.348 142.625 352.939 149.518 352.371 150.655C352.013 151.34 351.405 151.86 350.673 152.107L350.775 147.26L354.348 142.625Z" fill="#263238"/>
<path d="M352.574 132.752C352.574 132.752 353.584 132.498 354.662 134.179C355.579 135.613 355.791 138.839 354.348 142.667L351.691 142.99L352.574 132.752Z" fill="#263238"/>
<path d="M353.551 134.153L356.81 134.212C356.832 134.002 356.811 133.789 356.747 133.587C356.683 133.385 356.578 133.198 356.439 133.039C356.299 132.879 356.128 132.751 355.936 132.66C355.745 132.57 355.536 132.521 355.325 132.515C354.879 132.521 354.451 132.692 354.124 132.994C353.797 133.297 353.592 133.709 353.551 134.153Z" fill="#263238"/>
<path d="M353.95 133.381L356.36 131.063C356.221 130.899 356.05 130.766 355.857 130.672C355.664 130.578 355.454 130.525 355.239 130.516C355.024 130.507 354.81 130.543 354.61 130.621C354.41 130.699 354.229 130.818 354.077 130.97C353.757 131.282 353.567 131.704 353.543 132.15C353.519 132.597 353.665 133.036 353.95 133.381Z" fill="#263238"/>
<path d="M350.894 142.947C351.428 143.278 352.184 142.217 352.846 141.496C353.508 140.774 355.562 140.112 356.632 142.455C357.701 144.798 355.876 147.115 354.348 147.879C351.607 149.237 350.741 147.26 350.741 147.26L350.512 158.176C346.658 164.118 337.914 163.931 341.064 157.887V154.568C339.768 154.784 338.453 154.852 337.142 154.772C335.003 154.432 333.662 152.675 333.008 150.265C331.972 146.394 331.573 143.27 332.456 135.656C333.424 127.32 342.744 127.227 347.736 130.563C352.727 133.899 350.894 142.947 350.894 142.947Z" fill="#FFA8A7"/>
<path d="M339.281 134.357C341.505 134.136 343.704 133.678 345.936 133.508C346.418 133.45 346.906 133.473 347.379 133.576C349.077 134.043 348.873 136.029 349.145 137.413C349.612 139.807 349.994 143.856 350.894 143.873C351.165 143.873 352.184 142.115 352.846 141.487C353.21 140.946 353.416 140.314 353.44 139.662C353.61 138.678 353.695 137.667 353.771 136.666C353.839 135.817 353.924 134.968 353.924 134.119C353.963 133.16 353.886 132.199 353.695 131.258C353.482 130.458 353.074 129.723 352.506 129.119L352.337 128.933C351.218 127.763 349.86 126.848 348.356 126.25C346.191 125.439 343.921 124.945 341.616 124.782C339.313 124.619 337.021 124.335 334.748 123.933C334.618 123.895 334.48 123.895 334.349 123.933C334.257 123.984 334.179 124.057 334.123 124.146C334.067 124.235 334.033 124.337 334.027 124.442C333.934 124.97 333.992 125.513 334.195 126.008C334.397 126.504 334.737 126.932 335.173 127.243C333.636 127.362 331.871 126.564 330.394 126.157C330.274 126.106 330.146 126.08 330.016 126.08C329.886 126.08 329.758 126.106 329.638 126.157C329.49 126.26 329.384 126.414 329.341 126.59C329.234 126.989 329.219 127.407 329.299 127.812C329.434 129.041 329.891 130.212 330.623 131.208C331.767 132.697 333.383 133.754 335.207 134.204C336.549 134.463 337.923 134.514 339.281 134.357Z" fill="#263238"/>
<path d="M341.072 154.568C341.072 154.568 345.843 153.566 347.507 152.641C348.498 152.099 349.302 151.271 349.816 150.264C349.565 151.275 349.118 152.227 348.5 153.066C347.286 154.695 341.072 155.884 341.072 155.884V154.568Z" fill="#F28F8F"/>
<path d="M342.218 141.7C342.209 141.962 342.304 142.217 342.482 142.409C342.66 142.601 342.907 142.716 343.169 142.727C343.377 142.744 343.585 142.698 343.766 142.594C343.948 142.491 344.094 142.335 344.185 142.148C344.276 141.96 344.309 141.749 344.278 141.543C344.248 141.337 344.155 141.144 344.014 140.991C343.872 140.838 343.687 140.731 343.484 140.685C343.28 140.638 343.068 140.655 342.874 140.731C342.68 140.808 342.513 140.941 342.396 141.114C342.279 141.287 342.217 141.491 342.218 141.7Z" fill="#263238"/>
<path d="M343.746 137.582L345.792 138.762C345.941 138.472 345.974 138.135 345.886 137.821C345.798 137.506 345.595 137.236 345.316 137.065C345.181 136.989 345.031 136.942 344.876 136.927C344.721 136.912 344.565 136.929 344.417 136.978C344.269 137.026 344.134 137.105 344.018 137.209C343.902 137.314 343.81 137.441 343.746 137.582Z" fill="#263238"/>
<path d="M341.497 148.584L339.315 149.433C339.359 149.582 339.433 149.721 339.533 149.841C339.633 149.961 339.756 150.059 339.896 150.129C340.035 150.199 340.187 150.24 340.343 150.248C340.499 150.257 340.654 150.234 340.801 150.18C341.098 150.052 341.335 149.816 341.464 149.519C341.593 149.223 341.605 148.889 341.497 148.584Z" fill="#F28F8F"/>
<path d="M333.441 138.457L335.309 136.963C335.225 136.832 335.115 136.721 334.985 136.636C334.856 136.551 334.71 136.494 334.557 136.469C334.404 136.445 334.247 136.452 334.097 136.492C333.948 136.532 333.808 136.602 333.687 136.7C333.438 136.911 333.275 137.207 333.229 137.531C333.184 137.855 333.259 138.185 333.441 138.457Z" fill="#263238"/>
<path d="M334.264 141.419C334.279 141.605 334.348 141.783 334.462 141.93C334.576 142.077 334.73 142.188 334.906 142.249C335.082 142.31 335.272 142.319 335.453 142.274C335.634 142.228 335.798 142.132 335.924 141.995C336.051 141.858 336.135 141.688 336.166 141.504C336.197 141.32 336.174 141.131 336.1 140.96C336.026 140.79 335.903 140.644 335.748 140.542C335.592 140.439 335.41 140.384 335.224 140.384C335.092 140.388 334.963 140.419 334.844 140.473C334.725 140.528 334.617 140.605 334.528 140.702C334.439 140.798 334.37 140.911 334.324 141.034C334.279 141.157 334.259 141.288 334.264 141.419Z" fill="#263238"/>
<path d="M339.383 140.622L339.273 146.657L335.843 145.876L339.383 140.622Z" fill="#F28F8F"/>
<path d="M257.943 191.171L263.266 188.098L265.371 185.543L260.057 188.616L257.943 191.171Z" fill="#FB7712"/>
<path opacity="0.4" d="M257.943 191.171L263.266 188.098L265.371 185.543L260.057 188.616L257.943 191.171Z" fill="black"/>
<path d="M272.416 199.524L277.739 196.451L282.178 192.521L276.864 195.585L272.416 199.524Z" fill="#FB7712"/>
<path opacity="0.4" d="M272.416 199.524L277.739 196.451L282.178 192.521L276.864 195.585L272.416 199.524Z" fill="black"/>
<path d="M317.627 210.126C318.885 211.813 319.647 213.818 319.825 215.915C318.572 214.225 317.811 212.222 317.627 210.126ZM329.995 210.287C328.203 198.106 321.659 186.061 313.866 181.553C310.123 179.389 306.659 179.312 303.884 180.934L298.875 183.82L298.595 183.99C298.372 184.112 298.157 184.249 297.95 184.397C297.539 184.68 297.152 184.998 296.796 185.348L296.626 185.509C296.473 185.662 296.312 185.84 296.167 186.01C296.023 186.18 295.802 186.443 295.633 186.672C295.272 187.146 294.946 187.646 294.657 188.166C294.504 188.429 294.359 188.709 294.224 189.015L250.482 163.77L245.168 166.834V170.23L245.618 170.484L246.042 170.73V171.41L245.193 171.91V173.88L251.619 187.462L257.969 191.137L260.082 188.591L265.685 191.944L268.902 197.453L272.45 199.498L276.89 195.56L282.34 198.709L284.173 206.272L293.332 211.569C293.785 213.494 294.352 215.39 295.03 217.248C295.089 217.435 295.166 217.63 295.242 217.842C298.281 225.822 303.111 232.655 308.561 235.804C309.214 236.191 309.898 236.524 310.607 236.797C310.981 236.946 311.364 237.074 311.753 237.179C312.092 237.27 312.432 237.346 312.771 237.408C313.843 237.604 314.942 237.604 316.014 237.408L316.455 237.298C316.666 237.256 316.874 237.196 317.075 237.12L317.55 236.933C317.719 236.872 317.881 236.796 318.034 236.704C318.191 236.636 318.344 236.56 318.493 236.475L318.713 236.339C318.753 236.326 318.791 236.306 318.824 236.28C320.037 235.583 323.025 233.852 323.84 233.393C327.881 231.05 330.495 225.125 330.495 216.747C330.489 214.585 330.321 212.425 329.995 210.287Z" fill="#FB7712"/>
<path d="M316.073 220.406C313.968 219.192 312.27 215.593 312.27 212.367C312.27 209.141 313.968 207.503 316.073 208.708C318.178 209.914 319.868 213.521 319.868 216.756C319.868 219.99 318.17 221.62 316.073 220.406ZM324.672 213.352C322.89 201.179 316.345 189.125 308.544 184.626C304.928 182.538 301.583 182.385 298.867 183.82L298.587 183.99C298.364 184.112 298.148 184.248 297.942 184.397C297.53 184.68 297.144 184.998 296.787 185.348L296.617 185.509C296.465 185.662 296.303 185.84 296.159 186.01C296.015 186.18 295.794 186.443 295.624 186.672C295.264 187.146 294.938 187.646 294.648 188.166C294.495 188.429 294.351 188.709 294.215 189.015C293.424 190.656 292.853 192.394 292.517 194.184L245.159 166.834V170.23L245.609 170.484L246.034 170.73V171.41L245.185 171.91V173.88L251.611 187.461L257.96 191.137L260.074 188.59L265.676 191.943L268.894 197.453L272.442 199.498L276.881 195.56L282.331 198.709L284.165 206.272L293.332 211.569C293.785 213.494 294.352 215.39 295.03 217.248C295.089 217.435 295.166 217.63 295.242 217.842C298.281 225.821 303.111 232.655 308.561 235.804C309.214 236.191 309.898 236.524 310.607 236.797C310.981 236.946 311.364 237.074 311.753 237.179C312.092 237.27 312.432 237.346 312.771 237.408C313.843 237.604 314.942 237.604 316.014 237.408L316.455 237.298C316.666 237.256 316.873 237.196 317.075 237.12L317.55 236.933C317.718 236.872 317.881 236.796 318.034 236.704C318.191 236.636 318.344 236.559 318.492 236.475L318.713 236.339C318.753 236.326 318.791 236.306 318.824 236.279C322.694 233.835 325.181 227.995 325.181 219.82C325.167 217.654 324.997 215.493 324.672 213.352Z" fill="#FB7712"/>
<path opacity="0.4" d="M319.868 216.747C319.868 219.981 318.17 221.62 316.073 220.406C313.977 219.192 312.271 215.601 312.271 212.367C312.271 209.133 313.968 207.495 316.073 208.709C316.68 209.078 317.207 209.562 317.627 210.135C317.809 212.231 318.57 214.235 319.825 215.924C319.856 216.197 319.871 216.472 319.868 216.747Z" fill="black"/>
<path opacity="0.4" d="M330.479 216.739C330.479 225.117 327.864 231.042 323.823 233.385C322.975 233.843 320.021 235.575 318.807 236.271C322.677 233.826 325.165 227.986 325.165 219.812C325.156 217.649 324.991 215.49 324.672 213.352C322.89 201.179 316.345 189.125 308.544 184.626C304.928 182.538 301.583 182.385 298.867 183.82L303.875 180.934C306.651 179.312 310.114 179.389 313.858 181.553C321.659 186.061 328.204 198.106 329.986 210.287C330.31 212.423 330.474 214.579 330.479 216.739Z" fill="white"/>
<path d="M325.165 219.795C325.165 227.969 322.677 233.809 318.807 236.254C320.021 235.558 323.009 233.826 323.823 233.368C327.864 231.025 330.478 225.1 330.478 216.722C330.478 216.416 330.478 216.102 330.478 215.788L325.165 218.861C325.156 219.192 325.165 219.497 325.165 219.795Z" fill="#FB7712"/>
<path opacity="0.1" d="M325.165 219.795C325.165 227.969 322.677 233.809 318.807 236.254C320.021 235.558 323.009 233.826 323.823 233.368C327.864 231.025 330.478 225.1 330.478 216.722C330.478 216.416 330.478 216.102 330.478 215.788L325.165 218.861C325.156 219.192 325.165 219.497 325.165 219.795Z" fill="black"/>
<path opacity="0.15" d="M292.721 197.656V199.38L245.168 171.927L246.042 171.418V170.705L292.721 197.656Z" fill="black"/>
<path opacity="0.15" d="M292.721 198.369V199.38L245.168 171.927L246.042 171.418V171.41L292.721 198.369Z" fill="black"/>
<path opacity="0.15" d="M313.399 233.376C311.597 233.33 309.84 232.805 308.306 231.857C300.556 227.383 294.249 214.073 294.249 202.189C294.249 195.254 296.346 190.076 300.004 187.962C302.551 186.485 305.564 186.672 308.731 188.497C316.472 192.971 322.779 206.323 322.779 218.207C322.779 225.134 320.683 230.32 317.024 232.426C315.92 233.056 314.67 233.384 313.399 233.376ZM303.68 187.835C302.549 187.829 301.436 188.122 300.454 188.684C297.118 190.611 295.123 195.662 295.123 202.181C295.123 213.793 301.235 226.798 308.756 231.11C311.634 232.808 314.359 232.96 316.625 231.653C319.961 229.726 321.956 224.684 321.956 218.165C321.956 206.544 315.844 193.548 308.332 189.227C306.928 188.373 305.323 187.904 303.68 187.869V187.835Z" fill="black"/>
<path opacity="0.4" d="M294.181 188.998C293.39 190.639 292.819 192.377 292.483 194.167L245.125 166.817L250.439 163.753L294.181 188.998Z" fill="white"/>
<path d="M355.732 191.655C358.211 186.961 361.046 176.418 362.455 171.096C364.458 163.541 361.216 158.787 357.532 158.592C355.231 158.948 347.651 186.511 347.651 186.511C346.802 187.181 335.283 193.03 331.582 194.499C330.92 194.749 330.19 194.749 329.528 194.499C327.754 193.854 326.54 193.972 324.8 193.803C323.433 193.667 322.745 193.183 322.567 193.472C322.405 193.83 322.384 194.236 322.509 194.609C322.633 194.982 322.893 195.294 323.238 195.483C323.987 195.92 324.785 196.267 325.615 196.519C324.127 196.97 322.576 197.179 321.022 197.139C317.457 197.062 316.175 198.607 318.943 202.232C320.64 204.49 323.45 205.203 329.723 203.038C331.523 202.41 333.967 201.196 336.251 200.373C340.953 198.675 342.193 198.471 345.775 197.257C350.995 195.492 354.629 193.743 355.732 191.655Z" fill="#FFA8A7"/>
<path d="M356.148 157.879C358.313 158.176 360.392 158.66 361.674 160.425C362.956 162.191 363.983 164.67 362.727 171.418C361.765 176.164 360.477 180.838 358.873 185.407C358.873 185.407 353.831 187.563 348.474 182.097L352.158 167.853C352.158 167.853 352.753 158.592 356.148 157.879Z" fill="#455A64"/>
</svg>
